# xmcd
# 
# Track frame offsets:
#     150
#     24587
#     41740
#     53425
#     80550
#     91568
#     109380
#     126606
#     138522
#     159615
#     176863
#     194954
#     206740
#     223873
#     240343
#     256940
#     268506
#     284847
#     301951
#     313754
# 
# Disc length: 4412
# 
# Revision: 2
# Processed by: cddbd v1.5.2PL0 Copyright (c) Steve Scherf et al.
# Submitted via: BonkEnc v1.0.8
# 
DISCID=36113a14
DTITLE=Various Artist - The World's Best Award Winning Country Vol. 4
DYEAR=2005
DGENRE=Country
TTITLE0=Kenny Chesney - Anything But Mine
TTITLE1=Melinda Schneider - Real People
TTITLE2=Jason McCoy - I Feel A Sin Comin' On
TTITLE3=Dixie Chicks - Top Of The World
TTITLE4=Tommy Emmanuel - Tall Fiddler
TTITLE5=Brooks and Dunn - It's Getting Better All The Time
TTITLE6=Carolyn Dawn Johnson - Simple Life
TTITLE7=Alan Jackson - Little Bitty
TTITLE8=Bella - About A Girl
TTITLE9=Doc Walker - Forgive Me
TTITLE10=Terri Clark - The World Needs A Drink
TTITLE11=Nitty Gritty Dirt Band - Earl's Breakdown
TTITLE12=Adam Harvey - That's What You Call A Friend
TTITLE13=Reba McEntire - He Gets That From Me
TTITLE14=Jedd Hughes - High Lonesome
TTITLE15=The Corb Lund Band - Five Dollar Bill
TTITLE16=Gretchen Wilson - Redneck Woman
TTITLE17=Ricky Skaggs and Kentucky Thunder - Brand New Strings
TTITLE18=George Canyon - One Good Friend
TTITLE19=Loretta Lynn - Portland, Oregon (Duet With Jack White)
EXTD=
EXTT0=
EXTT1=
EXTT2=
EXTT3=
EXTT4=
EXTT5=
EXTT6=
EXTT7=
EXTT8=
EXTT9=
EXTT10=
EXTT11=
EXTT12=
EXTT13=
EXTT14=
EXTT15=
EXTT16=
EXTT17=
EXTT18=
EXTT19=
PLAYORDER=
